Coordinates
version=1
nRows=10
nColumns=40
inDegrees=yes

Units are S.I. units (second, meters, Newtons, ...)
If the header above contains a line with 'inDegrees', this indicates whether rotational values are in degrees (yes) or radians (no).

endheader
time	pelvis_tilt	pelvis_list	pelvis_rotation	pelvis_tx	pelvis_ty	pelvis_tz	hip_flexion_r	hip_adduction_r	hip_rotation_r	knee_angle_r	knee_angle_r_beta	ankle_angle_r	subtalar_angle_r	mtp_angle_r	hip_flexion_l	hip_adduction_l	hip_rotation_l	knee_angle_l	knee_angle_l_beta	ankle_angle_l	subtalar_angle_l	mtp_angle_l	lumbar_extension	lumbar_bending	lumbar_rotation	arm_flex_r	arm_add_r	arm_rot_r	elbow_flex_r	pro_sup_r	wrist_flex_r	wrist_dev_r	arm_flex_l	arm_add_l	arm_rot_l	elbow_flex_l	pro_sup_l	wrist_flex_l	wrist_dev_l
      0.12000000	      8.78141914	      3.50810096	    -13.42834989	     -1.14028830	      0.92003797	      0.22804643	    -20.90456129	    -11.35507510	      1.02894748	     44.48444925	      0.77640011	    -14.35029305	      0.00000000	      0.00000000	     17.31344731	      2.58421034	     -4.98906228	     19.57658895	      0.34167593	     -1.16805010	      0.00000000	      0.00000000	    -17.87168963	     -5.67470549	     15.41002260	     -8.78847968	     -9.75082623	    -11.82817327	     77.36402500	     88.09082590	     -8.20183435	     -7.57506528	    -18.50215281	     -3.48566922	      0.46441706	      9.89227842	     86.97224255	    -11.71483196	      6.58258634
      0.13000000	      9.23544517	      4.48288375	    -13.34694802	     -1.12185865	      0.92167191	      0.22737606	    -19.59929931	    -12.48972061	      1.41513468	     47.70280992	      0.83257110	    -15.94669274	      0.00000000	      0.00000000	     16.40598359	      4.01744097	     -5.01041721	     20.63095633	      0.36007812	     -0.93057209	      0.00000000	      0.00000000	    -18.30177465	     -6.84091119	     14.22717815	     -8.89985954	     -9.24724046	    -11.64368757	     76.14361578	     88.05942054	     -8.29983514	     -7.46442825	    -17.91167004	     -3.79324731	      0.32558869	     10.67482220	     87.11521722	    -11.59242672	      6.49429375
      0.14000000	      9.35719654	      6.29549164	    -13.66649155	     -1.10348904	      0.92276076	      0.22765090	    -17.47313134	    -14.46417313	      2.06797498	     51.19023668	      0.89343817	    -15.95560577	      0.00000000	      0.00000000	     15.79675138	      6.10481039	     -5.78760402	     21.05215075	      0.36742935	     -0.91117288	      0.00000000	      0.00000000	    -18.00360744	     -9.00569297	     12.94430264	     -8.72797890	     -8.59531019	    -10.98289320	     74.01183947	     87.99473425	     -8.71366671	     -7.56843266	    -17.46190946	     -4.19826726	     -0.80382350	     11.59709473	     87.25193964	    -11.48065726	      6.46410387
      0.15000000	      9.59671693	      7.41135209	    -13.77878325	     -1.08598609	      0.92457701	      0.22719756	    -15.46232420	    -15.58054285	      2.90520196	     54.42731728	      0.94993589	    -15.78324697	      0.00000000	      0.00000000	     14.90004860	      7.63231024	     -6.03970736	     21.44375553	      0.37426414	     -0.25628483	      0.00000000	      0.00000000	    -18.21198314	    -10.30618013	     11.76648877	     -8.66334315	     -8.16515050	    -10.55366439	     72.19400476	     87.94531621	     -9.17272317	     -7.59846416	    -16.73042283	     -4.54287517	     -1.14813079	     12.63781927	     87.48412281	    -11.49729412	      6.38419972
      0.16000000	      9.76688760	      8.32742658	    -13.89044380	     -1.06916293	      0.92673036	      0.22692451	    -13.24471604	    -16.32566285	      3.93971735	     57.50407665	      1.00363547	    -14.86017007	      0.00000000	      0.00000000	     13.90579965	      8.94727964	     -6.16389147	     21.51594676	      0.37552411	      0.54419405	      0.00000000	      0.00000000	    -18.45766767	    -11.40526553	     10.69651560	     -8.57600934	     -7.79282566	    -10.08099728	     70.21642569	     87.87113892	     -9.67249639	     -7.50765637	    -15.76280934	     -4.92984036	     -1.37178806	     13.60943389	     87.64440722	    -11.67413536	      6.27350759
      0.17000000	      9.81834797	      9.09258764	    -14.03894608	     -1.05277758	      0.92899994	      0.22670284	    -10.75718718	    -16.78293364	      5.12963066	     60.41021790	      1.05435720	    -13.43194975	      0.00000000	      0.00000000	     12.87216541	     10.08982701	     -6.24881466	     21.26926421	      0.37121869	      1.41888251	      0.00000000	      0.00000000	    -18.62929445	    -12.31007135	      9.70876586	     -8.45591977	     -7.49343769	     -9.52437661	     68.10102472	     87.78762677	    -10.33574533	     -7.35528097	    -14.68892134	     -5.30623853	     -1.63909223	     14.62066804	     87.82614239	    -12.09333299	      6.12680628
      0.18000000	      9.87825573	      9.61276144	    -14.17097787	     -1.03676488	      0.93162878	      0.22646942	     -8.27240985	    -16.86995842	      6.33843256	     62.96892621	      1.09901509	    -11.50853345	      0.00000000	      0.00000000	     11.64935506	     11.00736939	     -6.22246300	     20.76436571	      0.36240655	      2.38472897	      0.00000000	      0.00000000	    -18.89927694	    -12.93067220	      8.76121852	     -8.29902743	     -7.32031236	     -8.86540911	     65.89666757	     87.72356051	    -10.88812364	     -7.02237052	    -13.48821280	     -5.68727747	     -1.70160872	     15.64365864	     87.97807682	    -12.62424961	      5.93871410
      0.19000000	      9.87108109	      9.93656677	    -14.33287015	     -1.02100052	      0.93437356	      0.22630291	     -5.70386337	    -16.64015892	      7.56495843	     65.17776393	      1.13756658	     -9.27568262	      0.00000000	      0.00000000	     10.32329574	     11.71653109	     -6.09679633	     19.98439462	      0.34879349	      3.31947295	      0.00000000	      0.00000000	    -19.13888907	    -13.32053264	      7.89994976	     -8.12456475	     -7.25102059	     -8.09049946	     63.62034571	     87.67329685	    -11.40194252	     -6.56254056	    -12.23163005	     -6.05151016	     -1.81089046	     16.73876481	     88.12078045	    -13.35034991	      5.68653490
      0.20000000	      9.95452487	      9.92973675	    -14.41560326	     -1.00536294	      0.93756298	      0.22609102	     -3.40803867	    -15.97661395	      8.63567333	     66.85459686	      1.16683284	     -6.78085555	      0.00000000	      0.00000000	      8.69352708	     12.13993495	     -5.78370729	     18.98489526	      0.33134893	      4.21799294	      0.00000000	      0.00000000	    -19.56841763	    -13.32194883	      7.10047954	     -7.98256808	     -7.27014542	     -7.35626883	     61.35261036	     87.65764257	    -11.59970538	     -6.03248337	    -10.82518689	     -6.43529855	     -1.72969564	     17.78271163	     88.24733469	    -13.83059033	      5.46009992
      0.21000000	      9.79968438	     10.03185169	    -14.66058779	     -0.98969266	      0.94019478	      0.22599177	     -0.72096982	    -15.33635256	      9.83192364	     68.29632628	      1.19199576	     -4.36843568	      0.00000000	      0.00000000	      7.29684015	     12.59513256	     -5.60507945	     17.82574583	      0.31111796	      4.85891322	      0.00000000	      0.00000000	    -19.59609724	    -13.41996868	      6.33936983	     -7.74299843	     -7.41257502	     -6.21087810	     58.86317014	     87.66918027	    -11.91066443	     -5.26416575	     -9.64025026	     -6.74603629	     -2.23145244	     19.14198890	     88.35712876	    -14.97580236	      5.04846271
